<svg width="80" height="80" viewBox="0 0 80 80" fill="none" xmlns="http://www.w3.org/2000/svg">
    <path d="M39.9997 23.3341C47.0721 23.3341 53.8549 26.1436 58.8559 31.1445C63.8568 36.1455 66.6663 42.9283 66.6663 50.0007C66.6663 57.0732 63.8568 63.8559 58.8559 68.8569C53.8549 73.8579 47.0721 76.6674 39.9997 76.6674C32.9272 76.6674 26.1445 73.8579 21.1435 68.8569C16.1425 63.8559 13.333 57.0732 13.333 50.0007C13.333 42.9283 16.1425 36.1455 21.1435 31.1445C26.1445 26.1436 32.9272 23.3341 39.9997 23.3341V23.3341ZM39.9997 35.0007L35.5897 43.9341L25.733 45.3674L32.8663 52.3174L31.183 62.1374L39.9997 57.5007L48.8163 62.1341L47.133 52.3174L54.2663 45.3641L44.4097 43.9307L39.9997 35.0007ZM43.333 6.66406L59.9997 6.6674V16.6674L55.4563 20.4607C51.6861 18.4827 47.5699 17.2502 43.333 16.8307V6.6674V6.66406ZM36.6663 6.66406V16.8307C32.4308 17.2495 28.3158 18.4809 24.5463 20.4574L19.9997 16.6674V6.6674L36.6663 6.66406V6.66406Z" fill="#1D67AC"/>
</svg>
