<svg width="80" height="80" viewBox="0 0 80 80" fill="none" xmlns="http://www.w3.org/2000/svg">
    <path d="M21.2733 19.894C26.5858 15.6375 33.1927 13.3231 40 13.334C47.0833 13.334 53.5933 15.7873 58.7267 19.894L63.57 15.0507L68.2834 19.764L63.44 24.6073C66.9657 29.0211 69.1735 34.3407 69.8094 39.9539C70.4452 45.5671 69.4833 51.2458 67.0343 56.3365C64.5853 61.4271 60.7487 65.7228 55.966 68.7293C51.1834 71.7357 45.6491 73.3307 40 73.3307C34.3509 73.3307 28.8166 71.7357 24.034 68.7293C19.2514 65.7228 15.4148 61.4271 12.9658 56.3365C10.5167 51.2458 9.55481 45.5671 10.1907 39.9539C10.8265 34.3407 13.0343 29.0211 16.56 24.6073L11.7167 19.7673L16.43 15.054L21.2733 19.8973V19.894ZM43.3333 40.0007V24.984L26.6667 46.6673H36.6667V61.6673L53.3333 40.0007H43.3333ZM26.6667 3.33398H53.3333V10.0007H26.6667V3.33398Z" fill="#A9C5DF"/>
</svg>
