<svg width="80" height="80" viewBox="0 0 80 80" fill="none" xmlns="http://www.w3.org/2000/svg">
<path d="M10 10H41.2733C41.8922 10.0003 42.4988 10.1729 43.0251 10.4985C43.5514 10.8241 43.9767 11.2897 44.2533 11.8433L46.6667 16.6667H66.6667C67.5507 16.6667 68.3986 17.0179 69.0237 17.643C69.6488 18.2681 70 19.1159 70 20V56.6667C70 57.5507 69.6488 58.3986 69.0237 59.0237C68.3986 59.6488 67.5507 60 66.6667 60H45.3933C44.7745 59.9997 44.1679 59.8271 43.6416 59.5015C43.1153 59.1759 42.69 58.7103 42.4133 58.1567L40 53.3333H16.6667V73.3333H10V10Z" fill="#A9C5DF"/>
</svg>
