<svg width="80" height="80" viewBox="0 0 80 80" fill="none" xmlns="http://www.w3.org/2000/svg">
    <path d="M26.4699 59.9999C25.4799 55.7566 21.0132 52.2866 19.1799 49.9999C16.0405 46.0776 14.073 41.3481 13.5041 36.3565C12.9351 31.3648 13.7879 26.3139 15.964 21.7857C18.1402 17.2575 21.5513 13.4362 25.8044 10.7619C30.0575 8.08756 34.9795 6.66912 40.0035 6.66992C45.0275 6.67073 49.949 8.09075 54.2012 10.7664C58.4535 13.4421 61.8633 17.2645 64.0381 21.7934C66.2128 26.3223 67.0639 31.3735 66.4934 36.365C65.9228 41.3564 63.9538 46.0852 60.8132 50.0066C58.9799 52.2899 54.5199 55.7599 53.5299 59.9999H26.4665H26.4699ZM53.3332 66.6666V69.9999C53.3332 71.768 52.6308 73.4637 51.3806 74.714C50.1303 75.9642 48.4346 76.6666 46.6665 76.6666H33.3332C31.5651 76.6666 29.8694 75.9642 28.6192 74.714C27.3689 73.4637 26.6665 71.768 26.6665 69.9999V66.6666H53.3332ZM43.3332 33.3499V19.9999L28.3332 40.0166H36.6665V53.3499L51.6665 33.3499H43.3332V33.3499Z" fill="#A9C5DF"/>
</svg>
